<svg width="0" height="0" class="hidden">
   <symbol fill="none" xmlns="http://www.w3.org/2000/svg" viewBox="0 0 109 25" id="logo">
    <path d="M44.149 23.992c-4.106 0-7.358-1.229-9.757-3.686l2.664-3.755c1.984 2.086 4.429 3.129 7.335 3.129 1.268 0 2.249-.243 2.94-.73.716-.51 1.073-1.124 1.073-1.843 0-.626-.334-1.147-1.003-1.565-.646-.417-1.465-.718-2.457-.904a31.89 31.89 0 01-3.183-.8 27.454 27.454 0 01-3.217-1.182c-.969-.44-1.788-1.136-2.457-2.086-.645-.95-.968-2.11-.968-3.477 0-1.993.795-3.662 2.387-5.007C39.097.718 41.219.035 43.872.035c3.667 0 6.666 1.078 8.995 3.233l-2.733 3.616c-1.822-1.692-4.06-2.538-6.712-2.538-1.038 0-1.845.209-2.422.626-.576.417-.865.985-.865 1.704 0 .556.323 1.031.969 1.425.669.371 1.488.65 2.456.835a25 25 0 013.183.834 22.24 22.24 0 013.183 1.217c.992.44 1.811 1.148 2.457 2.121.669.95 1.003 2.098 1.003 3.443 0 2.225-.796 4.022-2.387 5.39-1.569 1.367-3.852 2.05-6.85 2.05zm20.295 0c-2.583 0-4.717-.812-6.4-2.434-1.684-1.623-2.526-3.756-2.526-6.398 0-2.48.807-4.567 2.422-6.259 1.637-1.692 3.713-2.538 6.227-2.538 2.491 0 4.51.858 6.055 2.573 1.545 1.692 2.318 3.917 2.318 6.676v.973H60.12c.138 1.113.634 2.04 1.487 2.782.853.742 1.96 1.113 3.321 1.113.738 0 1.534-.15 2.388-.452.876-.302 1.568-.707 2.075-1.217l1.938 2.85c-1.684 1.554-3.979 2.33-6.885 2.33zm3.84-10.397c-.069-.95-.45-1.808-1.142-2.573-.668-.765-1.66-1.147-2.975-1.147-1.245 0-2.214.382-2.906 1.147-.692.742-1.096 1.6-1.211 2.573h8.234zm23.102 9.979h-4.394V13.421c0-2.086-1.026-3.129-3.079-3.129-1.591 0-2.86.66-3.805 1.982v11.3h-4.394V6.78h4.394v2.19c1.453-1.738 3.402-2.607 5.846-2.607 1.8 0 3.149.475 4.048 1.425.923.95 1.384 2.26 1.384 3.93v11.856zm10.383.418c-1.453 0-2.848-.232-4.186-.696-1.315-.463-2.41-1.1-3.287-1.912l1.903-3.095c.646.603 1.522 1.136 2.63 1.6 1.106.463 2.156.695 3.148.695.922 0 1.614-.162 2.076-.487.484-.324.726-.765.726-1.321 0-.417-.254-.753-.761-1.008-.484-.279-1.096-.476-1.834-.591-.715-.116-1.51-.29-2.387-.522a16.99 16.99 0 01-2.387-.835c-.715-.324-1.326-.834-1.834-1.53-.484-.718-.726-1.599-.726-2.642 0-1.483.61-2.735 1.833-3.755 1.223-1.02 2.895-1.53 5.017-1.53 2.583 0 4.832.765 6.746 2.295l-1.764 3.025c-.531-.556-1.246-1.02-2.145-1.391a7.119 7.119 0 00-2.802-.556c-.785 0-1.419.162-1.903.486-.485.302-.727.696-.727 1.183 0 .37.242.683.727.938.484.232 1.095.406 1.833.522.738.116 1.534.301 2.388.556.853.232 1.649.522 2.387.87.738.324 1.349.857 1.833 1.599.485.742.727 1.646.727 2.712 0 1.576-.646 2.875-1.937 3.894-1.269.997-3.034 1.496-5.294 1.496z" fill="#fff"></path>
    <path d="M4.913 23.574H0V.382h4.913v23.192zm15.514.418c-3.483 0-6.366-1.125-8.65-3.373-2.26-2.272-3.39-5.146-3.39-8.623 0-3.477 1.13-6.34 3.39-8.588C14.061 1.136 16.944 0 20.428 0c3.506 0 6.389 1.124 8.65 3.373C31.36 5.62 32.5 8.496 32.5 11.996c0 3.268-1.003 6.004-3.01 8.206l1.696 1.982L27.762 25l-1.869-2.156c-1.707.765-3.529 1.148-5.466 1.148zm0-4.381c.807 0 1.614-.128 2.422-.383l-2.526-2.99 3.39-2.817 2.56 3.026c.785-1.299 1.177-2.782 1.177-4.451 0-2.202-.646-4.022-1.937-5.46-1.292-1.436-2.987-2.155-5.086-2.155s-3.794.719-5.086 2.156c-1.268 1.437-1.903 3.257-1.903 5.459 0 2.202.634 4.022 1.903 5.459 1.292 1.437 2.987 2.156 5.086 2.156z" fill="#FF4F55"></path>
  </symbol>
  <symbol fill="none" xmlns="http://www.w3.org/2000/svg" viewBox="0 0 58 18" id="bottomArrow">
    <path d="M1 1l28 15L57 1" stroke-width="2"></path>
  </symbol>
  <symbol fill="none" xmlns="http://www.w3.org/2000/svg" viewBox="0 0 413 95" id="bgText">
    <path d="M167.278 90.903c-15.557 0-27.879-4.654-36.968-13.965l10.094-14.228c7.516 7.905 16.78 11.857 27.791 11.857 4.807 0 8.521-.922 11.143-2.767 2.709-1.932 4.064-4.26 4.064-6.982 0-2.372-1.268-4.348-3.802-5.929-2.447-1.58-5.549-2.722-9.307-3.425-3.671-.703-7.691-1.713-12.061-3.03-4.369-1.318-8.433-2.81-12.191-4.48-3.671-1.668-6.773-4.303-9.308-7.904-2.447-3.601-3.67-7.993-3.67-13.175 0-7.553 3.015-13.877 9.045-18.971C148.138 2.722 156.179.13 166.229.13c13.895 0 25.257 4.084 34.083 12.252l-10.356 13.702c-6.904-6.412-15.381-9.618-25.431-9.618-3.933 0-6.992.79-9.177 2.372-2.185 1.58-3.277 3.733-3.277 6.455 0 2.108 1.224 3.909 3.671 5.402 2.534 1.405 5.636 2.459 9.307 3.162 3.758.702 7.778 1.756 12.06 3.162 4.37 1.317 8.39 2.854 12.061 4.61 3.758 1.67 6.86 4.348 9.307 8.037 2.534 3.601 3.802 7.949 3.802 13.043 0 8.432-3.015 15.238-9.046 20.42-5.942 5.183-14.594 7.773-25.955 7.773zm76.898 0c-9.788 0-17.872-3.074-24.251-9.222-6.38-6.148-9.57-14.228-9.57-24.24 0-9.399 3.059-17.303 9.176-23.715 6.205-6.412 14.071-9.617 23.597-9.617 9.438 0 17.085 3.25 22.941 9.749 5.855 6.411 8.783 14.843 8.783 25.295v3.689H227.79c.524 4.216 2.403 7.729 5.637 10.54 3.234 2.81 7.428 4.215 12.585 4.215 2.796 0 5.811-.57 9.045-1.712 3.321-1.142 5.943-2.68 7.865-4.612l7.341 10.803c-6.379 5.885-15.075 8.828-26.087 8.828zm14.551-39.391c-.262-3.602-1.704-6.851-4.326-9.75-2.534-2.898-6.292-4.347-11.273-4.347-4.72 0-8.39 1.449-11.012 4.347-2.622 2.811-4.151 6.06-4.588 9.75h31.199zm87.534 37.811h-16.648v-38.47c0-7.905-3.889-11.857-11.667-11.857-6.031 0-10.837 2.503-14.42 7.51v42.817h-16.649V25.69h16.649v8.3c5.505-6.588 12.89-9.882 22.154-9.882 6.817 0 11.929 1.801 15.337 5.402 3.496 3.601 5.244 8.564 5.244 14.887v44.926zm39.34 1.58c-5.505 0-10.793-.878-15.861-2.635-4.982-1.756-9.133-4.171-12.454-7.246l7.21-11.725c2.447 2.284 5.768 4.304 9.963 6.06 4.195 1.757 8.171 2.635 11.929 2.635 3.496 0 6.118-.614 7.865-1.844 1.836-1.23 2.753-2.898 2.753-5.006 0-1.581-.961-2.855-2.884-3.821-1.835-1.054-4.151-1.8-6.947-2.24-2.71-.439-5.725-1.098-9.046-1.976-3.233-.878-6.248-1.932-9.045-3.162-2.709-1.23-5.025-3.162-6.948-5.796-1.835-2.723-2.753-6.06-2.753-10.013 0-5.621 2.316-10.364 6.948-14.229 4.632-3.864 10.968-5.797 19.008-5.797 9.788 0 18.309 2.899 25.563 8.696l-6.686 11.462c-2.01-2.108-4.719-3.865-8.127-5.27-3.321-1.406-6.861-2.108-10.619-2.108-2.971 0-5.374.615-7.21 1.844-1.835 1.142-2.752 2.635-2.752 4.48 0 1.405.917 2.59 2.752 3.557 1.836.878 4.152 1.537 6.948 1.976 2.797.44 5.812 1.142 9.045 2.108 3.234.878 6.249 1.976 9.046 3.294 2.796 1.23 5.112 3.25 6.947 6.06 1.836 2.81 2.753 6.236 2.753 10.276 0 5.972-2.447 10.89-7.341 14.755-4.806 3.777-11.492 5.665-20.057 5.665zm-366.986-1.58H0V1.45h18.615v87.874zm58.783 1.581c-13.197 0-24.121-4.26-32.773-12.779-8.565-8.607-12.847-19.498-12.847-32.673 0-13.174 4.282-24.021 12.847-32.541C53.277 4.304 64.201 0 77.398 0c13.284 0 24.208 4.26 32.772 12.78 8.652 8.519 12.978 19.41 12.978 32.672 0 12.384-3.801 22.748-11.405 31.092l6.424 7.51-12.978 10.671-7.08-8.168c-6.466 2.898-13.37 4.347-20.711 4.347zm0-16.6c3.058 0 6.117-.483 9.176-1.449l-9.57-11.33 12.847-10.671 9.7 11.462c2.972-4.919 4.458-10.54 4.458-16.864 0-8.344-2.447-15.238-7.341-20.684-4.894-5.445-11.318-8.168-19.27-8.168-7.953 0-14.377 2.723-19.27 8.168-4.807 5.446-7.21 12.34-7.21 20.684 0 8.344 2.403 15.239 7.21 20.684 4.893 5.446 11.317 8.168 19.27 8.168z" fill="#F1F1F1"></path>
  </symbol>
  <symbol fill="none" xmlns="http://www.w3.org/2000/svg" viewBox="0 0 1919 701" id="decorativeLine">
    <path d="M1 700c119.47-258.568 225.986-474.454 349.054-491.774 123.069-17.321 173.448 144.13 258.373 144.13 84.924 0 125.947-74.23 153.296-144.13C789.071 138.326 843.769 1 946.686 1 1049.6 1 1099.98 146.986 1125.89 208.226c25.91 61.239 95 188.668 191.44 188.668s125.23-71.501 216.63-62.477c91.4 9.024 123.79 118.768 218.79 118.768 95 0 77.73-84.127 166.25-84.127" stroke="url(#paint0_linear)" stroke-width="2" stroke-linecap="round" stroke-linejoin="round"></path>
    <defs>
      <linearGradient id="paint0_linear" x1="1" y1="700" x2="1919" y2="700" gradientUnits="userSpaceOnUse">
        <stop stop-color="#FF59F8"></stop>
        <stop offset="1" stop-color="#FE0"></stop>
      </linearGradient>
    </defs>
  </symbol>
  <symbol fill="none" xmlns="http://www.w3.org/2000/svg" viewBox="0 0 106 106" id="warning">
    <g clip-path="url(#clip0)" filter="url(#filter0_i)" fill="#D9D9D9">
      <path d="M52.999 72.644c-2.964 0-5.448 2.484-5.448 5.447 0 2.964 2.484 5.448 5.448 5.448 2.854 0 5.447-2.484 5.317-5.317a5.319 5.319 0 00-5.317-5.578z"></path>
      <path d="M103.42 91.95c3.421-5.906 3.443-12.944.044-18.827L69.341 14.03c-3.378-5.95-9.479-9.48-16.321-9.48-6.842 0-12.943 3.552-16.32 9.457L2.532 73.167c-3.4 5.948-3.378 13.03.065 18.935 3.4 5.84 9.479 9.348 16.277 9.348h68.16c6.82 0 12.942-3.552 16.385-9.5zm-7.409-4.271c-1.895 3.268-5.25 5.208-8.999 5.208H18.853c-3.704 0-7.038-1.896-8.89-5.1-1.874-3.246-1.896-7.125-.022-10.393l34.167-59.138c1.852-3.247 5.164-5.164 8.912-5.164 3.726 0 7.06 1.94 8.912 5.186l34.145 59.138c1.83 3.181 1.808 7.016-.066 10.263z"></path>
      <path d="M51.648 34.402c-2.593.741-4.206 3.094-4.206 5.949.131 1.721.24 3.465.37 5.186.371 6.559.742 12.987 1.112 19.546.13 2.222 1.852 3.835 4.075 3.835 2.222 0 3.966-1.722 4.075-3.966 0-1.351 0-2.593.13-3.966.24-4.205.501-8.41.741-12.616.13-2.724.37-5.448.501-8.171 0-.981-.13-1.853-.5-2.724-1.112-2.44-3.705-3.683-6.298-3.073z"></path>
    </g>
    <defs>
      <clipPath id="clip0">
        <path fill="#fff" d="M0 0h106v106H0z"></path>
      </clipPath>
      <filter id="filter0_i" x="0" y="0" width="106" height="110" filterUnits="userSpaceOnUse" color-interpolation-filters="sRGB">
        <feFlood flood-opacity="0" result="BackgroundImageFix"></feFlood>
        <feBlend in="SourceGraphic" in2="BackgroundImageFix" result="shape"></feBlend>
        <feColorMatrix in="SourceAlpha" values="0 0 0 0 0 0 0 0 0 0 0 0 0 0 0 0 0 0 127 0" result="hardAlpha"></feColorMatrix>
        <feOffset dy="4"></feOffset>
        <feGaussianBlur stdDeviation="2"></feGaussianBlur>
        <feComposite in2="hardAlpha" operator="arithmetic" k2="-1" k3="1"></feComposite>
        <feColorMatrix values="0 0 0 0 0 0 0 0 0 0 0 0 0 0 0 0 0 0 0.25 0"></feColorMatrix>
        <feBlend in2="shape" result="effect1_innerShadow"></feBlend>
      </filter>
    </defs>
  </symbol>
  <symbol fill="none" xmlns="http://www.w3.org/2000/svg" viewBox="0 0 444 876" id="robot">
    <g clip-path="url(#clip0)">
      <path d="M433.472 870.103c1.964 1.311 1.964 3.276 0 4.587-1.965 1.31-5.893 1.31-8.513 0-1.964-1.311-1.964-3.276 0-4.587 2.62-1.31 6.548-1.31 8.513 0zm-21.603-12.449c1.965 1.311 1.965 3.277 0 4.587-1.964 1.31-5.893 1.31-8.512 0-1.965-1.31-1.965-3.276 0-4.587 2.619-1.31 6.548-1.31 8.512 0zm21.603-12.448c1.964 1.31 1.964 3.275 0 4.586-1.965 1.31-5.893 1.31-8.513 0-1.964-1.311-1.964-3.276 0-4.586 2.62-1.311 6.548-1.311 8.513 0zm-42.562 0c1.964 1.31 1.964 3.275 0 4.586-1.964 1.31-5.893 1.31-8.512 0-1.965-1.311-1.965-3.276 0-4.586 1.964-1.311 5.893-1.311 8.512 0zm20.959-12.449c1.965 1.31 1.965 3.276 0 4.586-1.964 1.31-5.893 1.31-8.512 0-1.965-1.31-1.965-3.276 0-4.586 2.619-1.311 6.548-1.311 8.512 0zm21.603-12.449c1.964 1.311 1.964 3.276 0 4.587-1.965 1.31-5.893 1.31-8.513 0-1.964-1.311-1.964-3.276 0-4.587 2.62-1.31 6.548-1.31 8.513 0zm-64.165 12.449c1.965 1.31 1.965 3.276 0 4.586-1.964 1.31-5.893 1.31-8.512 0-1.965-1.31-1.965-3.276 0-4.586 2.619-1.311 5.893-1.311 8.512 0zm21.603-12.449c1.964 1.311 1.964 3.276 0 4.587-1.964 1.31-5.893 1.31-8.512 0-1.965-1.311-1.965-3.276 0-4.587 1.964-1.31 5.893-1.31 8.512 0zm20.959-12.448c1.965 1.31 1.965 3.275 0 4.586-1.964 1.31-5.893 1.31-8.512 0-1.965-1.311-1.965-3.276 0-4.586 2.619-1.311 6.548-1.311 8.512 0zm21.609-12.449c1.965 1.31 1.965 3.276 0 4.586-1.964 1.31-5.893 1.31-8.512 0-1.964-.655 6.548-5.897 8.512-4.586zm-85.783 24.897c1.965 1.311 1.965 3.276 0 4.587-1.964 1.31-5.893 1.31-8.512 0-1.965-1.311-1.965-3.276 0-4.587 2.619-1.31 5.893-1.31 8.512 0zm21.612-12.448c1.965 1.31 1.965 3.275 0 4.586-1.964 1.31-5.893 1.31-8.512 0-1.965-1.311-1.965-3.276 0-4.586 2.619-1.311 5.893-1.311 8.512 0z" fill="#353535"></path>
      <path d="M108.691 315.806l201.024-178.214c30.776-27.519 77.921-79.935 106.733-112.694 3.928-5.242 9.167-9.828 14.405-13.104 12.441-8.518 24.883-10.484 33.395-5.242l30.121 18.346c1.964 1.31 2.619 3.93 1.309 5.896l-16.37 25.553-5.893-5.242c-4.583 16.38-15.06 33.416-28.156 45.21-3.274 2.62-6.548 5.241-9.167 7.206-40.598 24.243-81.196 51.761-120.484 84.521L144.705 333.496c-1.309 1.31-1.964 3.931-.654 5.242l8.512 14.414c1.31 1.965.655 3.931-.655 5.241l-19.644 17.691c-1.309 1.31-3.274 1.31-5.238.655l-27.502-17.035s-3.929-3.931-4.584-7.207c-3.273-10.484 2.62-26.863 13.751-36.691z" fill="#FF537C"></path>
      <path d="M454.433 34.07c-8.513-4.586-20.954-3.276-33.395 5.242-5.238 3.931-10.477 8.518-15.06 13.76-28.812 32.759-75.957 84.52-106.733 112.693L184 267.976c-2.619 1.966-1.964 5.897.655 7.862l16.37 9.828 109.352-93.693c39.288-32.76 79.885-60.278 120.483-84.52 3.274-1.966 6.548-3.932 9.167-7.208 13.751-11.793 23.573-28.828 28.157-45.208l5.893 5.241 6.548-10.483-26.192-15.725z" fill="#F2F2F2"></path>
      <path d="M128.994 380.67c-1.309 0-2.619-.655-3.928-1.31l-28.157-17.691c-.655-.655-4.583-4.586-5.238-8.517-3.274-11.794 3.929-29.484 15.715-39.967l200.369-178.214c28.811-25.553 73.992-74.693 106.078-112.04 4.583-5.24 9.822-10.482 15.715-13.758C442.644 0 456.395-1.966 466.217 3.276l30.12 18.345c1.31.655 2.62 2.621 3.274 4.587.655 1.965 0 3.93-.654 5.897l-18.335 28.828-4.583-4.586c-5.239 15.725-15.716 30.794-27.502 41.277-3.274 2.621-6.548 5.242-9.822 7.208-47.146 28.173-85.124 55.036-120.483 84.52L147.984 335.461c-.655 0-.655.655 0 1.311l8.512 14.414c1.964 3.276 1.31 7.207-1.31 9.173l-19.644 17.69c-2.619 1.966-4.583 2.621-6.548 2.621zm-28.156-23.587l27.502 17.035h1.309l19.644-17.69c.655-.656.655-.656 0-1.311l-8.512-14.414c-1.965-3.276-1.31-7.207 1.964-9.828l170.903-146.109c35.359-29.484 73.993-56.347 121.138-85.176 3.274-1.966 5.893-3.931 9.167-6.552 12.442-11.138 22.918-26.863 27.502-43.243l1.31-5.242 6.548 6.552 13.75-22.276v-.656s0-.655-.654-.655L462.288 9.173c-7.858-4.587-18.989-1.966-30.121 5.241-5.238 3.276-9.822 7.862-14.406 13.104-31.43 37.346-77.266 86.486-106.077 112.694L110.66 317.771c-9.822 9.173-15.715 24.242-13.75 34.07.654 1.311 2.618 3.931 3.928 5.242z" fill="#353535"></path>
      <path d="M139.472 334.806l201.023-178.214c30.776-27.518 77.922-79.934 106.733-112.694 4.583-5.242 9.167-9.828 15.06-13.76 18.335-12.448 36.014-10.482 42.562 5.242 9.168 21.622-4.583 58.313-28.156 79.279-3.274 2.621-6.548 5.242-9.167 7.208-40.598 24.242-81.196 51.76-120.484 84.52l-196.44 168.386c-11.131 9.173-22.263 7.862-24.882-2.621-3.274-11.138 3.274-27.518 13.751-37.346z" fill="#353535"></path>
      <path d="M136.193 383.946c-1.309 0-3.274 0-4.583-.655-4.584-1.311-7.858-5.242-9.168-10.483-3.274-11.794 3.929-29.484 15.716-39.968l200.368-178.213c28.157-26.208 73.993-75.348 106.078-112.695 4.584-5.241 9.822-10.483 15.715-13.759 11.132-7.862 22.918-10.483 32.086-7.862 7.202 1.965 12.441 7.207 15.715 14.414 9.822 22.932-3.929 60.934-29.466 82.555-3.274 2.621-6.548 5.242-9.822 7.207-47.146 28.174-85.124 55.037-120.484 84.521l-196.44 168.386c-5.238 3.931-10.476 6.552-15.715 6.552zm5.893-47.174c-9.822 9.172-15.715 24.242-13.75 34.07.654 3.276 2.619 5.242 5.238 5.897 3.929 1.31 9.167-.655 14.406-5.242l196.44-168.386c35.359-29.484 73.992-56.347 121.138-85.176 3.274-1.965 5.893-3.931 9.167-6.552 22.918-19.655 35.359-54.381 26.847-74.692-2.619-5.242-5.893-9.173-11.132-10.483-7.203-1.966-17.025.655-26.847 7.207-5.238 3.276-9.822 7.862-14.405 13.104-32.74 37.346-77.922 87.141-106.733 112.694L142.086 336.772z" fill="#353535"></path>
      <path d="M434.412 57.614l-31.454-18.859-3.366 5.62 31.455 18.86 3.365-5.62zm-267.66 251.149l-31.455-18.856-3.365 5.62 31.455 18.856 3.365-5.62z" fill="#353535"></path>
      <path d="M367.341 184.765l-3.274-3.276c41.907-44.553 30.776-75.347 30.121-76.003l4.583-1.965c.655 1.965 12.442 34.725-31.43 81.244zm209.54 547.746v-28.174H267.815v28.174c0 22.932 15.061 45.864 45.182 62.899 60.241 34.725 158.461 34.725 218.703 0 30.121-17.035 45.181-39.967 45.181-62.899z" fill="#FF537C"></path>
      <path d="M422.349 824.894c-39.943 0-80.541-8.518-110.662-26.208-30.12-17.69-47.145-40.622-47.145-66.175v-31.45h314.959v31.45c0 24.897-16.37 48.485-47.146 66.175-29.466 17.69-70.064 26.208-110.006 26.208zM271.09 707.613v24.898c0 22.932 15.715 43.898 43.871 60.278 59.587 34.07 155.843 34.07 215.43 0 28.156-16.38 43.871-37.346 43.871-60.278v-24.898H271.09z" fill="#353535"></path>
      <path d="M531.7 644.714c60.242 34.726 60.242 91.073 0 126.453-60.242 34.726-158.462 34.726-218.703 0-60.242-34.725-60.242-91.072 0-126.453 60.241-35.381 158.461-35.381 218.703 0z" fill="#FF537C"></path>
      <path d="M531.704 672.888c-60.242-34.726-158.462-34.726-218.703 0-23.573 13.759-37.979 30.794-43.217 48.484 5.238 17.691 18.989 35.381 43.217 49.14 60.241 34.726 158.461 34.726 218.703 0 23.573-13.759 37.979-30.794 43.217-48.484-5.238-17.691-19.644-35.381-43.217-49.14z" fill="#F2F2F2"></path>
      <path d="M422.349 799.996c-39.943 0-80.541-8.517-110.662-26.208-30.12-17.69-47.145-40.622-47.145-66.175 0-24.897 16.37-48.485 47.145-66.175 60.897-35.381 160.426-35.381 221.978 0 30.12 17.69 47.145 40.622 47.145 66.175 0 24.898-16.37 48.485-47.145 66.175-30.776 17.691-71.374 26.208-111.316 26.208zm0-178.214c-39.288 0-77.922 8.518-107.388 25.553-28.156 16.38-43.871 37.346-43.871 60.278 0 22.932 15.715 43.898 43.871 60.278 59.587 34.071 155.843 34.071 215.43 0 28.156-16.38 43.871-37.346 43.871-60.278 0-22.932-15.715-43.898-43.871-60.278-30.121-17.035-68.754-25.553-108.042-25.553z" fill="#353535"></path>
      <path d="M536.291 695.82V534.642c0-1.966-1.31-3.276-3.274-3.276H311.694c-1.964 0-3.274 1.31-3.274 3.276V695.82c0 23.588 21.609 46.519 64.171 58.968 32.085 9.828 66.789 9.828 99.529 0 42.562-12.449 64.171-35.38 64.171-58.968z" fill="#FF537C"></path>
      <path d="M422.353 765.926c-17.025 0-34.05-2.62-50.42-7.207-41.252-12.448-66.134-35.38-66.134-62.244V535.297c0-3.276 2.619-6.552 6.548-6.552h221.322c3.274 0 6.548 2.62 6.548 6.552v161.178c0 26.864-24.882 49.796-66.135 62.244-17.679 4.587-34.704 7.207-51.729 7.207zm110.661-231.285H312.347v160.524c0 23.587 22.918 44.553 61.551 56.347 32.085 9.828 65.48 9.828 97.565 0 38.633-11.794 61.551-32.76 61.551-56.347V534.641z" fill="#353535"></path>
      <path d="M502.896 487.467c44.526 25.552 44.526 67.485 0 93.038-44.527 25.553-116.555 25.553-161.081 0-44.526-25.553-44.526-67.486 0-93.038 21.608-12.449 49.765-24.898 78.576-25.553 29.466 0 59.587 12.449 82.505 25.553z" fill="#FF537C"></path>
      <path d="M502.889 487.467c-22.918-13.104-53.039-25.553-82.505-25.553-28.811 0-56.313 12.449-78.576 25.553-15.715 9.173 23.573 4.586 52.384 3.931 29.466 0 59.587 12.449 82.505 25.553 28.811 16.38 38.633 39.312 30.121 60.933 40.597-26.208 39.288-65.52-3.929-90.417z" fill="#353535"></path>
      <path d="M446.583 513.019c-17.024-9.828-37.978-19.001-59.586-22.932-11.787 4.587-22.918 9.828-32.74 15.725-29.467 17.035-39.289 40.622-30.121 62.244 4.583 4.586 10.477 9.173 17.679 13.759 18.335 10.483 41.908 17.035 66.135 18.345 9.167-3.276 18.335-6.552 26.192-11.138 29.466-17.035 39.288-40.622 30.121-62.244-5.238-5.241-11.132-9.828-17.68-13.759z" fill="#F2F2F2"></path>
      <path d="M422.353 602.781c-29.466 0-59.587-6.551-81.85-19.655-22.263-13.104-34.704-30.795-34.704-49.14 0-19.001 12.441-36.036 34.704-49.14 29.466-17.035 56.313-25.553 79.886-25.553 32.085 0 63.515 13.759 83.814 25.553 22.263 13.104 34.705 30.794 34.705 49.14 0 19-12.442 36.036-34.705 49.14-22.263 13.104-51.729 19.655-81.85 19.655zm-.655-136.936h-.655c-22.918 0-48.455 8.518-76.611 24.898-20.299 11.793-31.431 27.518-31.431 43.898 0 16.38 11.132 32.105 31.431 43.898 43.217 24.898 113.935 24.898 157.807 0 20.299-11.793 31.43-27.518 31.43-43.898 0-16.38-11.131-32.105-31.43-43.898-20.954-11.794-50.42-24.898-80.541-24.898z" fill="#353535"></path>
      <path d="M487.827 477.639c36.014 20.966 36.014 55.036 0 76.003-36.014 20.966-94.946 20.966-130.96 0-36.014-20.967-36.014-55.037 0-76.003 36.014-20.967 94.946-20.311 130.96 0z" fill="#FF537C"></path>
      <path d="M487.835 496.64c-36.014-20.967-94.946-20.967-130.96 0-13.751 7.862-22.264 17.69-25.538 28.173 3.274 10.483 11.787 20.311 25.538 28.829 36.014 20.966 94.946 20.966 130.96 0 13.751-7.863 22.263-17.691 25.537-28.174-2.619-10.483-11.132-20.311-25.537-28.828z" fill="#F2F2F2"></path>
      <path d="M422.351 572.643c-24.228 0-48.455-5.242-67.445-16.38-18.334-10.484-28.811-24.898-28.811-40.623 0-15.724 10.477-30.139 28.811-40.622 37.324-21.622 97.566-21.622 134.234 0 18.335 10.483 28.812 24.898 28.812 40.622 0 15.725-10.477 30.139-28.812 40.623-17.679 11.138-42.562 16.38-66.789 16.38zm0-107.453c-22.918 0-46.491 5.242-64.171 15.07-16.37 9.828-25.537 22.276-25.537 35.38 0 13.104 9.167 25.553 25.537 35.381 35.36 20.311 92.327 20.311 127.686 0 16.37-9.828 25.538-22.277 25.538-35.381s-9.168-25.552-25.538-35.38c-17.024-9.828-39.942-15.07-63.515-15.07z" fill="#353535"></path>
      <path d="M479.319 505.813V402.291c0-.655 0-.655-.655-.655H366.038c-.655 0-.655 0-.655.655v103.522c0 11.793 10.477 23.587 32.086 29.484 16.37 4.586 33.394 4.586 49.764 0 21.609-6.552 32.086-17.691 32.086-29.484z" fill="#FF537C"></path>
      <path d="M479.316 402.291c0-.655 0-.655-.654-.655H434.79v136.937c4.584-.656 8.512-1.311 13.096-2.621 21.608-6.552 32.085-17.691 32.085-29.484l-.655-104.177z" fill="#353535"></path>
      <path d="M422.349 542.504c-8.513 0-17.68-1.311-25.538-3.931-21.608-6.552-34.049-18.346-34.049-32.76V402.291c0-1.965 1.964-3.931 3.929-3.931h111.97c1.965 0 3.929 1.966 3.929 3.931v103.522c0 14.414-13.096 26.208-34.049 32.76-8.513 2.62-17.68 3.931-26.192 3.931zm-53.694-138.247v100.9c0 11.139 11.132 20.967 29.466 26.208 15.715 4.587 32.085 4.587 47.8 0 18.335-5.241 29.466-15.724 29.466-26.208h3.274-3.274v-100.9H368.655z" fill="#353535"></path>
      <path d="M462.951 379.359c22.264 13.104 22.264 33.415 0 46.519-22.263 13.104-58.277 13.104-80.54 0-22.263-13.104-22.263-33.415 0-46.519s58.277-13.104 80.54 0z" fill="#FF537C"></path>
      <path d="M422.35 438.327c-15.06 0-30.121-3.276-41.907-9.828-11.786-6.552-18.334-16.38-18.334-26.208s6.548-19.001 18.334-26.208c22.918-13.104 60.897-13.104 83.815 0 11.786 6.552 18.334 16.38 18.334 26.208s-6.548 19.001-18.334 26.208c-11.787 6.552-26.847 9.828-41.908 9.828zm0-65.52c-13.751 0-28.156 3.276-38.633 9.173-9.822 5.897-15.06 13.104-15.06 20.311 0 7.863 5.238 15.07 15.06 20.311 20.954 12.449 55.658 12.449 77.267 0 9.822-5.897 15.06-13.104 15.06-20.311 0-7.862-5.238-15.069-15.06-20.311-10.477-5.897-24.883-9.173-38.634-9.173zm3.271 65.52h-6.548v100.245h6.548V438.327zm18.991 161.179h-6.548v161.179h6.548V599.506zm47.802 255.527c11.786 0 24.227-3.276 34.704-9.173l32.085-19c12.442-7.208 20.954-20.967 20.954-36.036 0-13.759-5.238-27.519-14.406-38.002l-11.786-13.104c-9.167-9.828-13.751-22.277-13.751-35.38v-43.244h-6.548v43.244c0 15.069 5.239 28.828 15.715 39.967l11.787 13.104c8.512 9.172 13.096 20.966 13.096 33.415 0 12.448-6.548 24.242-17.68 30.139l-32.085 19.001c-18.989 11.138-42.562 11.138-62.206.655l-37.978-21.622-3.274 5.897 37.978 21.622c9.822 5.241 21.608 8.517 33.395 8.517z" fill="#353535"></path>
      <path d="M39.943 541.849l50.42 9.828c.655 0 1.31 0 1.31-.656l17.024-81.899v-1.966c.655-5.241-3.274-11.138-12.44-15.725-6.549-3.276-14.406-5.241-21.61-4.586-9.821.655-15.714 3.931-17.679 8.518l-.655 1.31s0 1.31-.654 1.966l-16.37 81.899c0 .655 0 1.311.654 1.311z" fill="#FF537C"></path>
      <path d="M97.569 526.78c0-5.242-3.93-10.484-12.442-15.07-6.548-3.276-14.405-5.242-21.608-4.586-9.822.655-15.715 3.931-17.68 8.517l-.654 1.311s0 1.31-.655 1.965l-5.894 28.174.655.655 50.42 9.828c.655 0 1.31 0 1.31-.655l6.547-30.139z" fill="#F2F2F2"></path>
      <path d="M37.325 543.815l-.655-.656c-.655-1.31-.655-1.965-.655-3.276l17.025-81.899c0-.656.654-1.966.654-1.966l.655-1.31c1.965-3.932 6.548-9.828 20.954-11.139 8.512-.655 16.37 1.311 23.573 5.242 9.822 5.241 14.405 11.793 13.751 19 0 0 0 1.966-.655 1.966l-17.025 81.9c-.655 2.621-2.62 3.931-5.239 3.276l-50.42-9.828c-.654 0-1.309-.655-1.963-1.31zm64.17-85.176c-1.965-1.311-3.929-3.276-6.548-4.587-5.893-3.276-13.096-4.586-20.299-4.586-7.858.655-13.096 2.621-15.06 6.552v1.966l-17.025 81.244 46.49 9.173 16.371-79.934v-1.311c.655-2.62-1.31-5.897-3.929-8.517z" fill="#353535"></path>
      <path d="M81.846 561.505c-11.786 3.931-28.156 0-37.324-7.862-9.167-7.863-7.202-17.691 4.584-21.622 11.786-3.931 28.156 0 37.324 7.862 8.512 8.518 6.548 17.691-4.584 21.622z" fill="#353535"></path>
      <path d="M41.905 556.263c-5.239-4.586-7.203-9.828-6.548-15.069 1.31-5.242 5.238-9.173 12.44-11.794 12.442-3.931 30.776-.655 40.599 8.518 5.238 4.586 7.202 9.828 6.547 15.069-1.31 5.242-5.238 9.173-12.44 11.794-12.442 3.931-30.122.655-40.598-8.518zm41.907-13.759c-8.513-7.207-23.573-10.483-34.05-7.207-4.583 1.31-7.203 3.931-7.857 6.552-.655 2.621.654 5.897 4.583 9.173 7.858 7.207 23.573 10.483 34.05 7.207 4.584-1.311 7.203-3.932 7.858-6.552.654-2.621-1.31-5.897-4.584-9.173z" fill="#353535"></path>
      <path d="M42.566 600.162l20.298 3.931s.655 0 .655-.655l11.787-50.451v-.655c0-1.965-1.31-4.586-5.239-6.552-2.619-1.31-5.893-1.965-9.167-1.965-3.929 0-6.548 1.965-7.203 3.276v1.31l-11.131 51.761c-.655 0-.655 0 0 0z" fill="#FF537C"></path>
      <path d="M66.14 587.057v-.655c0-1.965-1.31-4.586-5.24-6.552-1.964-1.31-5.238-1.965-8.512-1.965s-5.238 1.31-6.548 2.62l-4.583 20.312s0 .655.655.655l20.298 3.931 3.93-18.346z" fill="#F2F2F2"></path>
      <path d="M40.6 603.438l-1.965-2.621v-1.966l11.787-50.45v-1.966c.655-1.965 3.274-5.241 9.822-5.241 3.928 0 7.203.655 10.477 1.965 4.583 2.621 7.202 5.897 6.547 9.828v1.311l-11.786 50.45c-.655 1.966-2.62 3.276-4.584 2.621L40.6 603.438zm30.12-53.071c-.654-.656-1.31-.656-1.964-1.311-1.964-1.31-4.584-1.965-7.203-1.31-3.274 0-3.928 1.31-4.583 1.965v.656l-11.132 47.174 15.06 3.276 11.132-47.83c0-.655 0-1.31-1.31-2.62z" fill="#353535"></path>
      <path d="M45.826 632.921l17.025-26.863c1.31-1.965 1.31-4.586-1.31-6.552-3.928-3.276-11.131-4.586-15.715-2.621-3.274 1.311-4.583 3.276-3.928 5.897l3.928 30.139z" fill="#353535"></path>
      <path d="M43.211 642.75l-4.584-39.968c-.654-3.276.655-7.207 5.894-9.172 5.893-1.966 13.75 0 18.334 3.931 3.929 3.931 3.929 8.517 1.31 11.138L43.21 642.75zm15.715-40.623c-2.619-2.621-8.512-3.931-11.786-2.621-1.31.656-1.965.656-1.965 1.311l2.62 22.277 11.786-19.001c.655 0 .655-.655-.655-1.966z" fill="#353535"></path>
      <path d="M45.351 652.215l3.734-18.63-6.42-1.288-3.734 18.63 6.42 1.288z" fill="#353535"></path>
      <path d="M42.104 666.932l3.734-18.63-6.42-1.289-3.734 18.631 6.42 1.288z" fill="#F2F2F2"></path>
      <path d="M147.987 461.914c-3.274 0-7.203-.655-10.477-1.965-23.572-10.484-55.003-19.001-71.373-3.932l-4.584-4.586c15.06-14.414 41.908-13.759 78.577 2.621 11.131 4.586 20.953-1.311 26.192-9.173 4.583-7.862 6.548-19.001-4.584-28.829-24.228-21.621-18.334-58.312-18.334-59.623l6.548 1.311c0 .655-5.239 34.725 16.37 53.726 13.75 12.449 11.786 28.174 5.238 37.346-5.238 7.863-14.406 13.104-23.573 13.104z" fill="#353535"></path>
      <path d="M162.394 457.328l-4.584-5.242 1.965 2.621-1.965-2.621s5.239-5.241 5.239-11.138c-.655-4.586-3.929-8.518-10.477-12.449-20.299-11.793-28.156-22.277-21.608-49.14l6.548 1.966c-5.894 22.932-.655 30.794 18.334 41.933 8.512 5.241 12.441 11.138 13.096 17.69 1.31 9.173-6.548 16.38-6.548 16.38z" fill="#353535"></path>
      <path d="M20.958 307.943l19.644-34.726c1.964-3.931 5.238-5.241 7.858-3.931l63.515 18.346c.655 0 .655.655.655 1.31l-8.512 24.897-2.62-.655-8.512 81.245 2.62 32.105-3.275 23.587-4.583 29.484-.655.655-62.206-18.346c-.655-.655-2.62-1.965-2.62-2.621-24.882-41.277-24.882-109.418-1.309-151.35z" fill="#FF537C"></path>
      <path d="M29.467 332.185L49.11 297.46c1.964-3.931 5.238-5.242 7.857-3.931l47.801 13.759-1.965 6.552-2.619-.655-2.619 24.897-13.75 7.863-3.275 23.587-4.583 29.484s-.655 0-.655.655l-53.694-15.725c-3.929-1.31-6.548-5.241-5.893-9.828 1.964-15.069 7.203-29.484 13.75-41.933z" fill="#F2F2F2"></path>
      <path d="M23.573 465.846l-1.31-1.311-.655-.655c-.654-.655-1.964-1.31-2.619-1.966-24.882-42.587-25.537-112.694-1.31-155.282l19.645-34.725c2.619-5.242 7.203-7.207 11.131-5.242l63.516 18.346c1.31.655 1.964 1.31 2.619 1.966.655 1.31.655 1.965 0 3.276l-9.822 28.173-1.964-.655-7.858 76.658 2.62 32.105-3.275 24.242-4.583 29.484c0 1.31-.655 1.966-1.965 2.621l-1.964.655-62.206-17.69zm66.135-71.417l8.512-85.831 3.274 1.31 6.548-19.655-61.551-18.346c-1.965-.655-3.274 1.31-3.929 2.621l-19.644 34.725C0 350.531 0 417.361 23.573 457.983l.655.655c.654 0 .654.656 1.31.656l58.931 17.035 3.93-26.863 3.273-23.587-1.964-31.45z" fill="#353535"></path>
      <path d="M85.78 326.944l19.644-34.726c3.274-5.897 8.513-5.897 11.787 0 2.619 4.587 3.274 11.794 1.309 17.035-5.238 17.035-13.096 54.382.655 94.349 2.619 7.862 1.965 17.69-1.309 24.242l-30.121 53.071h-.655c-24.883-43.243-25.537-111.383-1.31-153.971z" fill="#353535"></path>
      <path d="M85.126 483.536l-.654-1.966c-25.538-42.588-26.192-112.694-1.965-155.937l19.644-34.726c1.965-3.931 5.239-5.896 8.513-5.896s6.548 1.965 8.512 5.896c3.274 5.242 3.929 13.104 1.964 19.656-5.238 18.346-12.441 53.727.655 92.383 3.274 8.518 1.965 19.656-1.964 26.863L89.71 482.881l-1.964 1.965-2.62-1.31zm22.918-190.008L88.4 328.254c-22.918 40.622-22.918 104.831-1.31 145.454l27.502-48.485c3.274-5.897 3.929-14.414 1.31-21.621-13.751-39.968-6.548-77.314-.655-96.315 1.31-4.586.655-10.483-1.309-14.414-.655-1.31-1.965-2.621-3.274-2.621h-.655c0 .655-1.31 1.966-1.965 3.276z" fill="#353535"></path>
      <path d="M70.516 426.872L18.88 412.135l-1.796 6.301 51.637 14.737 1.796-6.301zm-.761-18.025l-26.451-7.529-1.792 6.302 26.451 7.529 1.792-6.302z" fill="#353535"></path>
      <path d="M92.326 435.051h-1.31c-3.273-.655-5.238-3.276-6.547-6.552-2.62-7.207-.655-17.035 3.929-22.277 2.619-3.276 5.893-4.586 8.512-3.931 3.274.655 5.238 3.276 6.548 6.552 2.619 7.207.655 17.035-3.929 22.277-1.964 2.621-4.583 3.931-7.203 3.931zm3.93-28.174c-1.31 0-2.62.656-3.93 2.621-3.928 4.587-5.238 12.449-3.274 17.691.655 1.965 1.965 3.276 3.274 3.931 1.31 0 3.274-.655 4.584-2.621 3.929-4.586 5.238-12.449 3.274-17.69-1.31-2.621-1.964-3.932-3.929-3.932zm41.252-45.863c0 5.241 3.274 7.207 8.513 5.241 4.583-2.62 8.512-9.172 8.512-14.414 0-5.242-3.274-7.207-8.512-5.242-4.584 2.621-8.513 9.173-8.513 14.415zm224.598-28.174c-32.085 18.346-32.085 48.485 0 66.831 32.085 18.345 83.814 18.345 115.245 0 32.085-18.346 32.085-48.485 0-66.831-31.431-18.345-83.16-18.345-115.245 0z" fill="#FF537C"></path>
      <path d="M369.957 340.703c22.263-6.552 46.491-6.552 68.754 0 13.751 3.931 24.228 9.173 32.085 15.07 11.787 9.172 11.787 26.863 0 36.036-7.857 5.896-18.334 11.793-32.085 15.069-22.263 6.552-46.491 6.552-68.754 0h-1.31c-32.74-9.828-32.74-56.347 0-66.175.655.655 1.31.655 1.31 0z" fill="#F2F2F2"></path>
      <path d="M360.792 402.292c-16.37-9.828-25.537-22.277-25.537-36.036s9.167-26.863 25.537-36.036c32.74-19.001 85.779-19.001 118.519 0 16.37 9.828 25.537 22.277 25.537 36.036s-9.167 26.863-25.537 36.036c-16.37 9.172-37.979 14.414-59.587 14.414-21.609 0-42.562-4.586-58.932-14.414zm3.274-66.175c-14.406 8.517-22.263 19-22.263 30.794 0 11.138 7.857 22.277 22.263 30.794 30.775 17.691 81.195 17.691 111.971 0 14.405-8.517 22.263-19.001 22.263-30.794 0-11.138-7.858-22.277-22.263-30.794-15.715-9.173-36.014-13.104-56.313-13.104-20.299-.656-40.598 3.931-55.658 13.104z" fill="#353535"></path>
      <path d="M336.56 352.496c0-15.724 5.893-32.104 16.37-45.864l1.309-1.965c46.491-66.175 92.327-210.974 92.327-213.595 2.619-17.69 15.061-36.69 29.466-45.209 7.858-4.586 15.061-5.241 20.299-2.62l1.964 1.31c.655 0 32.086 18.346 38.634 21.622.654.655.654 1.31.654 1.965l-147.33 331.531c-.654.655-1.309 1.31-1.964.655l-41.252-23.587-.655-.656c-6.548-4.586-9.822-11.793-9.822-23.587z" fill="#FF537C"></path>
      <path d="M424.308 315.805l103.458-231.94c-11.132-6.552-24.228-13.759-24.882-13.759l-1.965-1.31c-5.238-2.621-12.441-1.966-20.299 2.62-14.405 8.518-26.846 27.519-29.466 45.209 0 1.966-30.12 96.969-66.134 168.386-1.31 2.621-.655 6.552 1.964 7.862 10.477 6.552 29.466 18.346 37.324 22.932zm-39.29 76.003l3.274 1.966c.655.655 1.309 0 1.964-.655l31.431-70.107-36.669 68.796z" fill="#F2F2F2"></path>
      <path d="M388.944 403.602c-.655 0-1.309 0-2.619-.655l-42.562-24.243c-7.203-4.586-10.477-13.104-10.477-26.208 0-16.38 5.893-33.415 17.025-47.829l1.31-1.966c45.836-64.864 90.362-205.077 91.672-212.284 3.274-19 15.715-38.657 31.43-47.83 8.512-5.241 17.025-5.896 23.573-2.62l1.964 1.31c.655 0 34.705 19.656 38.633 21.622 1.965 1.31 2.62 3.93 1.965 5.897L392.873 400.98c-.655 1.31-1.31 1.966-2.619 2.621h-1.31zM490.438 44.553c-3.274 0-7.857 1.31-11.786 3.931-13.751 7.863-25.537 25.553-28.157 42.588-.654 4.587-47.145 150.041-92.981 215.56l-1.31 1.966c-10.477 13.759-15.715 28.829-15.715 43.898 0 10.483 2.619 17.035 7.858 20.967l1.309.655 39.288 22.277 146.021-328.91c-10.477-5.897-35.36-20.311-36.669-20.966l-2.619-.655c-1.965-.656-3.929-1.31-5.239-1.31z" fill="#353535"></path>
      <path d="M341.147 407.533c-20.954-38.002-1.31-76.003-1.31-76.003l11.132 7.207c14.406 9.173 33.395 5.241 43.872-8.518l1.309-1.965c46.491-66.175 92.327-210.974 92.327-213.595 2.619-17.69 15.715-37.346 30.776-45.864 17.025-9.173 29.466-1.966 29.466 18.346 0 13.759-6.548 28.828-16.37 40.622 0 0-71.373 134.316-77.267 204.422 0 19.656-6.548 40.622-21.608 55.036l-3.274 5.897c.655 20.311 19.644 17.691 29.466 14.415 6.548-1.966 12.441-4.587 17.68-7.863 15.715-9.173 23.572-20.966 23.572-32.76v28.174c0 17.035-15.06 33.415-45.836 42.588-22.918 7.207-48.455 7.207-71.373 0-22.263-6.552-36.014-17.035-42.562-28.829.655 0 .655-.655 0-1.31 0 .655 0 .655 0 0z" fill="#FF537C"></path>
      <path d="M453.769 331.53c5.894-70.106 77.267-204.422 77.267-204.422 9.822-11.138 16.37-26.863 16.37-40.622 0-19.656-12.441-27.519-29.466-18.346-15.061 7.863-27.502 27.519-30.776 45.864 0 1.966-30.121 96.969-66.135 168.386l-17.024 32.76-13.096 20.311c-9.168 20.966-41.253 64.21-57.623 53.726 7.203 9.173 11.132 36.691 49.765 47.83 22.918 6.552 48.455 7.207 71.373 0 30.776-9.173 45.836-25.553 45.836-42.588v-28.174c-.655 11.794-8.512 23.588-23.573 32.76-5.238 3.276-11.786 5.897-17.679 7.863-9.822 2.621-28.811 5.897-29.466-14.415l3.274-5.896c15.06-14.415 20.953-35.381 20.953-55.037z" fill="#353535"></path>
      <path d="M419.724 446.189c-12.441 0-24.882-1.965-36.669-5.241-21.608-6.552-37.323-17.035-44.526-30.795l-.655-.655 2.619-1.31-2.619 1.31 2.619-1.31-3.274 1.31c-21.608-39.312-1.964-77.313-1.309-78.624l1.964-3.276 14.406 9.173c13.096 8.518 29.466 4.587 39.288-7.862l1.309-1.966c45.182-64.864 90.363-205.077 91.672-212.284 3.274-19.656 17.025-39.967 32.086-47.83 9.167-5.241 17.679-5.896 24.227-1.965 6.548 3.931 9.822 11.794 9.822 22.932 0 13.759-6.548 29.484-17.025 41.933-3.928 7.207-70.718 136.281-76.611 203.111 0 22.932-7.858 43.243-22.263 57.002l-2.62 4.587c0 4.586 1.965 8.517 4.584 10.483 5.238 3.931 15.06 1.965 20.954.655 6.548-1.966 12.441-4.586 17.024-7.207 13.751-7.863 21.609-19.001 22.264-30.139h6.548v28.173c0 19.656-18.335 36.691-48.456 45.864-10.476 1.966-22.918 3.931-35.359 3.931zm-78.576-109.418c-3.929 9.828-13.096 39.967 2.619 69.451l.655 1.311c5.893 11.793 20.299 21.621 40.598 27.518 22.918 6.552 46.491 6.552 69.409 0 27.501-7.862 43.216-22.932 43.216-39.312v-9.173c-4.583 5.897-10.476 11.794-18.989 16.38-5.238 3.276-11.786 5.897-18.334 7.863-7.858 2.62-18.989 3.931-26.847-1.311-4.584-3.276-7.203-9.173-7.203-16.38v-.655l4.584-7.207c17.679-17.035 20.953-40.622 20.953-53.071 5.894-70.762 74.648-201.146 77.922-206.388l.654-.655c9.822-11.138 15.716-26.208 15.716-38.001 0-8.518-2.62-14.415-6.548-17.035-4.584-2.621-10.477-1.966-17.68 1.965-13.751 7.862-26.192 25.553-28.811 43.243-.655 4.587-47.146 150.041-92.982 215.56l-1.309 1.966c-11.787 15.725-32.74 19.656-48.456 9.828l-9.167-5.897z" fill="#353535"></path>
      <path d="M407.941 383.946c-2.619 0-4.584-.656-7.203-1.966-5.238-2.621-7.858-8.517-7.858-16.38 0-14.414 9.822-31.449 22.264-38.657 6.548-3.931 13.096-4.586 17.679-1.31 5.239 2.621 7.858 8.518 7.858 16.38 0 14.414-9.822 31.45-22.263 38.657-3.274 2.62-6.548 3.276-10.477 3.276zm18.989-53.071c-1.964 0-4.584.655-7.858 2.62-10.476 5.897-18.989 20.967-18.989 32.76 0 5.242 1.31 9.173 4.584 10.484 2.619 1.965 6.548 1.31 11.131-1.311 10.477-5.897 18.99-20.966 18.99-32.76 0-5.241-1.31-9.173-4.584-10.483-.655-1.31-1.964-1.31-3.274-1.31z" fill="#FF537C"></path>
      <path d="M399.427 378.704h-2.62l-.654-1.31c-1.965-3.276-2.62-7.208-2.62-11.139 0-14.414 9.822-31.449 22.264-38.656 3.928-1.966 7.857-3.276 11.131-3.276h1.965l.654 1.31c1.965 3.276 2.62 7.207 2.62 11.138 0 14.415-9.822 31.45-22.264 38.657-3.274 2.621-6.548 3.276-10.476 3.276zm25.537-47.83c-1.965 0-3.929.656-5.893 1.966-10.477 5.897-18.99 20.966-18.99 32.76 0 2.621.655 4.586 1.31 5.897 1.964 0 3.929-.655 5.893-1.966 10.477-5.897 18.989-20.966 18.989-32.76 0-1.965-.654-3.931-1.309-5.897zm51.727 100.246v-7.207c-6.548 3.931-13.751 7.207-22.263 9.173-4.584 1.31-9.822 2.621-14.406 3.276v6.552c5.238-.655 11.132-1.966 16.37-3.931 7.858-1.966 14.406-4.587 20.299-7.863z" fill="#FF537C"></path>
    </g>
    <defs>
      <clipPath id="clip0">
        <path fill="#fff" d="M0 0h607v876H0z"></path>
      </clipPath>
    </defs>
  </symbol>
</svg>